<?xml version="1.0" encoding="UTF-8"?><svg id="uuid-85d81a10-d2c7-46c4-b069-87963b713a2a" xmlns="http://www.w3.org/2000/svg" viewBox="0 0 533 533"><circle cx="266.5" cy="266.5" r="266.5" fill="#0077df"/><path d="M376.77,462.09h-11.83c-11.04,0-20.65-6.19-28.2-14.7-53.81,18.39-116.22,13.04-166.46-12.36-47.74-24.13-85.38-69.27-98.55-121.13-6.74.37-12.17-1.88-18.17-4.17-18.59-10.08-26.78-31.74-19.88-52.06,4.72-13.91,16.97-23.58,31.31-26.48,2.34-19.19,7.93-36.52,16.4-53.57,36.28-73.05,112.01-113.49,192.76-110.55,25.79.76,51.99,4.84,75.78,15.52,9.62-12.25,24.54-17.07,39.46-13.76,18.38,4.07,31.82,19.49,32.78,38.45.36,7.24-1.7,13.74-4.65,20.41,37.22,40.27,59.27,94.67,55.87,149.63-3.14,50.6-23.98,94.69-60.12,130.15,4.52,14.66.39,29.03-9.44,39.91-7.41,8.21-16.69,12.28-27.07,14.72h0ZM324.87,427.49c-4.65-18.05,2.52-35.92,17.51-46.38,18.13-12.66,43.31-10.81,59.09,5.32,68.18-66.18,65.77-176.15,2.47-244.69-15.29,9.8-34.96,9.1-48.57-1.91-7.49-6.07-11.94-13.98-13.83-23.25-.92-5.76-.02-11.18-.16-17.25-90.49-35.36-198.27-3.52-242.21,85.94-7.21,14.67-12.12,29.52-14.8,46.23,16.03,4.06,28.42,16.76,31.82,32.77,4.2,19.7-5.72,38.86-24.33,46.23,19.61,65.95,78.07,110.89,144.38,121.92,29.78,4.95,59.43,3.56,88.61-4.91h0Z" fill="#fff"/><path d="M263.94,309.41c24.42,2.71,42.46-2.38,63.13-15.12,1-.86,2.84-1.15,3.58.32l22.28,43.79c-35.73,22.11-90.48,27.7-128.76,13.79-39.82-14.47-58.18-50.11-58.14-91.14.02-13.42,1.58-25.91,5.93-38.58,8.94-26.06,29.08-45.97,55.03-55.11,9.16-3.22,17.82-5.54,27.59-6.49,34.41-3.37,71.05,3.5,98.75,24.83l-24.94,42.85c-.64,1.1-3.19-.48-4.21-1.16-26.1-17.5-66.32-29.82-90.22-2.69-11.44,12.99-13.05,35.88-8.78,52.04,4.87,18.45,19.93,30.58,38.77,32.68h0Z" fill="#fff"/></svg>