<?xml version="1.0" encoding="UTF-8"?>
<svg id="uuid-31bc5a15-b763-45b5-ba4d-9dbbab61e16f" xmlns="http://www.w3.org/2000/svg" version="1.1" viewBox="0 0 560.07 500.19">
  <!-- Generator: Adobe Illustrator 30.2.1, SVG Export Plug-In . SVG Version: 2.1.1 Build 1)  -->
  <defs>
    <style>
      .st0 {
        fill: #0170ed;
      }
    </style>
  </defs>
  <path class="st0" d="M437.33,500.19h-14.97c-13.97,0-26.14-7.83-35.69-18.6-68.11,23.28-147.1,16.5-210.69-15.65-60.43-30.54-108.07-87.68-124.74-153.32-8.53.47-15.4-2.38-23-5.28-23.53-12.76-33.9-40.17-25.16-65.89,5.98-17.6,21.48-29.85,39.63-33.52,2.96-24.29,10.04-46.23,20.76-67.81C109.39,47.66,205.24-3.52,307.45.19c32.64.96,65.81,6.13,95.91,19.65,12.17-15.51,31.06-21.6,49.95-17.42,23.26,5.15,40.28,24.67,41.49,48.67.46,9.16-2.15,17.39-5.88,25.83,47.11,50.97,75.02,119.82,70.71,189.39-3.97,64.05-30.35,119.85-76.1,164.73,5.72,18.55.49,36.75-11.95,50.52-9.38,10.39-21.12,15.54-34.26,18.63h.01ZM371.64,456.4c-5.89-22.85,3.19-45.46,22.16-58.71,22.95-16.03,54.82-13.68,74.79,6.73,86.3-83.76,83.24-222.95,3.13-309.71-19.35,12.41-44.25,11.52-61.47-2.42-9.48-7.68-15.11-17.69-17.5-29.43-1.17-7.29-.03-14.15-.2-21.83-114.53-44.76-250.95-4.46-306.57,108.78-9.12,18.57-15.34,37.37-18.73,58.51,20.29,5.14,35.97,21.21,40.28,41.48,5.31,24.93-7.24,49.18-30.8,58.52,24.82,83.48,98.82,140.35,182.75,154.31,37.69,6.27,75.22,4.5,112.16-6.22h0Z"/>
  <path class="st0" d="M294.52,306.94c30.91,3.43,53.74-3.01,79.91-19.14,1.26-1.09,3.59-1.46,4.53.4l28.2,55.43c-45.23,27.99-114.52,35.06-162.98,17.45-50.4-18.32-73.64-63.43-73.59-115.36.02-16.98,2-32.79,7.51-48.83,11.32-32.99,36.81-58.18,69.65-69.75,11.59-4.08,22.55-7.01,34.92-8.22,43.55-4.27,89.93,4.43,124.99,31.43l-31.57,54.24c-.81,1.39-4.04-.61-5.33-1.47-33.03-22.15-83.94-37.75-114.19-3.41-14.48,16.44-16.52,45.41-11.11,65.87,6.17,23.35,25.23,38.71,49.07,41.36h0Z"/>
</svg>