<?xml version="1.0" encoding="UTF-8"?><svg id="uuid-269e6d5d-f9b4-43e6-9fc1-22fb2846dc24" xmlns="http://www.w3.org/2000/svg" viewBox="0 0 916.12 233.78"><path d="M228.12,198.44c3.57,8.52,2.22,16.9-2.86,24.36-9.12,13.39-32.66,15.14-42.23,1.87-13.56,5.68-27.3,6.8-41.97,6.88-30.94.18-60.59-10.84-83.17-31.87-15.85-14.76-27.69-32.24-33.79-53.31-8.58-.44-15.44-4.41-19.51-10.34-4.88-7.11-5.77-15.42-3.12-23.23,2.95-8.7,9.47-15.06,19.11-15.92,3.74-23.27,14.2-43.15,30.06-60.18C73.59,12.08,105.28-.75,139.12.03c16.03.37,31.3,1.87,45.67,9.43C189.92,2.49,197.09-.02,205.11.1c12.23.18,21.83,7.99,24.38,19.82,1.28,5.91.9,11.17-2.75,16.42,23.59,24.3,35.55,55.84,33.82,89.28-1.43,27.61-11.68,54.11-32.43,72.81h-.01ZM175.17,212.86c-2.3-8.89-1.15-17.7,4.16-24.37,10.31-12.96,30.23-13.63,42.5-2.48,35.9-39.08,30.79-102.26-3.82-139.34-5.52,2.87-11.54,3.55-18.02,2.62-13.5-1.94-22.1-15.02-20.86-28.46C119.69-1.51,53.25,26.68,36.64,89.05c-.67,2.52-2.09,4.41-1.4,7.55,11.24,2.76,18.01,12.42,18.19,23.73s-5.34,19.75-16.07,23.92c8.87,26.32,26.8,46.97,50.57,60.27,16.37,9.16,34.35,13.04,53.19,13,11.66-.02,22.78-.68,34.05-4.65h0Z" fill="#fff"/><path d="M126.72,136.32c11.35,7.4,25.28,8.52,37.04,2.69l12.56-6.22,13.87,23.35c-12.24,10.69-27.35,14.32-43.03,14.71-17.28.42-33.48-3.76-46.33-15.12-10.49-9.28-16.54-20.8-18.26-34.7-3.84-31.01,17.07-58.5,48.29-63.01,19.01-2.75,42.1.1,58.3,12.99l-15,24.71c-10.06-8.2-22.1-12.63-34.52-10.98-16.81,2.23-26.68,16.78-24.13,33.21,1.14,7.33,4.38,13.94,11.22,18.39v-.02Z" fill="#fff"/><path d="M916.12,83.32v19.06c-5.57-.93-12.17-.77-17.15,2.91-5.22,3.86-7.37,10.42-7.51,16.69l-.62,28.71c-6.6-1.69-11.73-1.23-17.72-1.11l.09-64.9,17.84-.32c.58,3.88-.78,6.75.69,10.54,5.47-10.01,14.59-12.71,24.38-11.59h0Z" fill="#fff"/><path d="M616.64,144.32c-4.65-4.76-5.14-11.71-4.38-18.03,2.13-17.76,27.75-20.58,43.41-16.38,1.46-6.42-3.03-11.12-9.4-12.14-8.58-1.38-16.88,1.65-24.2,6.64-2.98-3.56-5.55-7.14-6.76-12.13,13.5-10.47,32.44-13.17,48.13-5.25,5.05,2.55,9.36,9.07,10.14,14.73,2.17,15.86,1.64,31.42,1.25,47.38-.04,1.62-4.68.94-5.97.47-2.51-.9-7.34,1-9.86-.16s-1.37-4.62-2.16-7.29c-7.97,11.4-29.87,12.73-40.19,2.15h-.01ZM646.19,136.52c5.81-.84,12.91-8.49,8.82-14.29-3.02-3-21.51-3.6-23.69,4.97-.67,2.62-.17,5.5,1.6,7.17,4.02,3.81,8.09,2.91,13.28,2.16h-.01Z" fill="#fff"/><path d="M402.58,135.44c16.08,4.57,24.7-6.25,26.84-4.23,3.04,2.87,5.03,6.28,6.89,10.58-13.91,11.31-34.61,13.32-50.04,3.53-17.42-11.05-17.39-41.46-3.06-54.03,13.05-11.44,34.14-12.26,46.59-.02,8.31,8.16,9.59,20.15,8.51,30.93l-46.26.2c.41,6.42,4.14,11.22,10.53,13.04ZM420.56,109.84c-1.16-9.1-7.3-13.19-14.49-12.47-7.7-.73-13.95,5.09-13.88,12.86l28.37-.39Z" fill="#fff"/><path d="M833.74,136.3c8.71.92,16.24-1.82,23.26-6,1.09,1.21,6.13,10.78,6.15,10.49-.23,5.34-21.84,14.88-41.59,8.31-13.98-4.65-20.72-17.6-20.9-31.7-.23-18.69,12.68-33.91,31.78-34.77,7.23-.33,14.97.85,21.29,5.2,11.91,8.21,13.41,20.61,12.45,34.48l-46.93.2c.97,7.43,6.61,12.95,14.49,13.78h0ZM848.21,110c-.54-9.44-7.82-13.67-16.26-12.8-6.67.69-11.73,6.08-11.99,13.05l28.24-.25h.01Z" fill="#fff"/><path d="M474.45,98.88c-5.75,1.32-9.94,4.98-10,10.85l-.43,39.7c-6.66-.07-12.85.45-18.96-.35l.16-64.41,17.8-.32c.53,2.63-.51,4.5.51,7.3,7.04-8.09,17.93-10.64,28.43-8.13s16.45,12.7,16.43,23.68l-.09,42.33-18.11-.09-.29-39.95c-.06-7.86-7.9-12.34-15.46-10.61h.01Z" fill="#fff"/><path d="M798.06,135.48l.73,14.04-58.45-.11c-.08-3.84-1.19-8.56,1.22-11.66l30.22-38.86-30.5-.35c-.23-4.88-.45-9.13.21-14.04l54.83-.15c2.06,5.42.62,10.9-2.87,15.39l-21.37,27.49c-2.32,2.98-4.35,5.31-7.37,8.4,5.42-.15,9.52.14,14.43.08l18.92-.22h0Z" fill="#fff"/><path d="M333.62,131.29c8.13,8.08,21.46,5.45,30.98,0,2.61,3.29,4.94,6.91,6.87,11.05-9.96,8.7-23.09,10.29-35.49,8.36-16.44-2.56-26.75-15.21-27.28-31.25-.65-19.88,12.71-35.94,32.91-36.62,10.7-.36,20.99.51,29.96,8.49l-6.65,12.27c-9.83-4.93-22.03-8.84-31.05-.33-7.61,7.18-8.01,20.31-.25,28.03h0Z" fill="#fff"/><path d="M559.94,134.19c.32,5.33.4,9.67-.09,14.7-7.15,2-14.02,3.42-21.15,2.03s-14.35-6.77-14.43-14.57l-.4-37.64-9.64-.21-.09-14.1c3.51-.23,6.37.34,9.7-.28.51-5.57.12-10.73-.47-16.45l18.72-.3.12,16.93,17.66.3c.47,4.73.31,8.91.11,14.19l-17.64-.1c-.41,9.92-.26,19.53-.11,29.48.08,5.4,5,8.71,10.08,7.9,2.67-.43,4.62-1.57,7.64-1.89h0Z" fill="#fff"/><path d="M586.1,149.29l-18.01.09.13-65.06,17.5.33.74,10.03c5.02-8.7,13.56-13.06,23.46-11.3.31,6.48.49,12.4.04,18.79-5.82-.83-11.63-.63-16.47,2.64-4.34,2.93-7.2,8.31-7.23,13.61l-.17,30.86h0Z" fill="#fff"/><rect x="684.1" y="60.38" width="18.13" height="89.13" fill="#fff"/><rect x="714.12" y="84.38" width="19" height="66" fill="#fff"/><path d="M722.93,78.73c-6.53-.5-9.62-6.39-8.93-11.91.78-6.21,6.57-9.54,13.21-8.45,6.01.99,8.96,6.29,7.9,12.36-.83,4.8-5.9,8.48-12.19,8h0Z" fill="#fff"/></svg>