<?xml version="1.0" encoding="UTF-8"?>
<svg id="uuid-23f6c9e6-91c4-4e23-936b-9c45df2ed7f5" xmlns="http://www.w3.org/2000/svg" version="1.1" viewBox="0 0 1007.87 1007.87">
  <!-- Generator: Adobe Illustrator 30.2.1, SVG Export Plug-In . SVG Version: 2.1.1 Build 1)  -->
  <defs>
    <style>
      .st0 {
        fill: #fff;
      }

      .st1 {
        fill: #0077df;
      }
    </style>
  </defs>
  <path class="st1" d="M695.91,0c-.12.5.35.84,1.07.88,10.61.66,20.99-.69,31.45.59,5.94.72,11.47.52,17.6.94,50.93,3.53,102.05,8.07,148.83,29.72,35.72,16.53,63.44,43.94,80.22,79.56,21.41,45.45,27.49,100.22,30.32,150.19l.99,17.56c.6,10.51,0,20.86.53,31.55.05,1.06.04,2.06.94,1.98v381.95c-.49-.12-.84.35-.89,1.07-.65,10.95.03,21.61-.58,32.44l-.99,17.56c-2.83,50.1-8.97,105.37-30.65,150.86-16.59,34.82-43.68,61.8-78.56,78.24-44.85,21.15-99.86,27.55-149.21,30.29l-18.56,1.03c-10.51.58-20.84-.06-31.46.57-.72.04-1.19.4-1.07.89h-383.95c.12-.5-.35-.84-1.07-.88-10.61-.67-20.95-.03-31.45-.59l-17.58-.94c-49.29-2.63-105.45-9.3-150.15-30.38-34.92-16.47-61.98-43.38-78.6-78.24-21.4-44.87-28.04-101.28-30.69-150.82l-.94-17.6c-.56-10.51,0-20.87-.54-31.54-.05-1.06-.03-2.06-.93-1.98v-381.95l1.52-33.51c1.48-32.66,4.44-70.66,10.65-102.52C24.78,112.18,52.57,59.27,115.04,31.21,161.86,10.19,211.2,6.11,261.86,2.39c6.08-.45,11.69,0,17.59-.94C290.47-.28,301.58,2.67,311.97,0h383.95-.01Z"/>
  <g>
    <path class="st0" d="M756.81,906h-24.07c-22.46,0-42.02-12.59-57.38-29.9-109.5,37.43-236.49,26.53-338.72-25.16-97.15-49.1-173.74-140.96-200.54-246.49-13.71.76-24.76-3.83-36.98-8.49-37.83-20.51-54.5-64.58-40.45-105.93,9.61-28.3,34.53-47.99,63.71-53.89,4.76-39.05,16.14-74.32,33.38-109.02,73.82-148.65,227.92-230.93,392.24-224.96,52.47,1.54,105.8,9.86,154.19,31.59,19.57-24.94,49.93-34.73,80.3-28.01,37.39,8.28,64.76,39.66,66.7,78.25.74,14.73-3.46,27.96-9.45,41.53,75.74,81.94,120.61,192.63,113.68,304.48-6.38,102.97-48.79,192.68-122.34,264.83,9.2,29.82.79,59.08-19.21,81.22-15.08,16.7-33.95,24.98-55.08,29.95h.02ZM651.2,835.6c-9.47-36.74,5.13-73.08,35.63-94.39,36.9-25.77,88.13-21.99,120.24,10.82,138.74-134.66,133.82-358.43,5.03-497.91-31.11,19.95-71.14,18.52-98.82-3.89-15.24-12.35-24.29-28.44-28.13-47.31-1.88-11.72-.05-22.75-.32-35.1-184.13-71.96-403.45-7.17-492.86,174.88-14.66,29.85-24.66,60.08-30.11,94.06,32.62,8.26,57.83,34.1,64.76,66.69,8.54,40.08-11.64,79.07-49.52,94.08,39.9,134.21,158.87,225.64,293.8,248.08,60.59,10.08,120.93,7.23,180.32-10h0v-.02Z"/>
    <path class="st0" d="M535.11,595.2c44.65,4.95,77.63-4.35,115.43-27.65,1.82-1.57,5.19-2.11,6.54.58l40.73,80.07c-65.33,40.43-165.42,50.64-235.42,25.21-72.8-26.46-106.37-91.62-106.3-166.64.03-24.53,2.89-47.36,10.85-70.53,16.35-47.65,53.17-84.04,100.61-100.75,16.74-5.89,32.57-10.13,50.44-11.87,62.91-6.17,129.9,6.4,180.55,45.4l-45.6,78.35c-1.17,2.01-5.84-.88-7.7-2.12-47.71-32-121.25-54.53-164.95-4.93-20.92,23.75-23.86,65.59-16.05,95.15,8.91,33.73,36.44,55.92,70.88,59.74h-.01Z"/>
  </g>
</svg>